<?xml version="1.0" encoding="UTF-8"?>
<svg version="1.1" xmlns="http://www.w3.org/2000/svg" width="1024" height="1024">
<path d="M0 0 C40.27511202 -0.99752599 76.21482783 15.35969944 105.5234375 42.125 C108.0293431 44.67313996 110.29807399 47.33111296 112.5234375 50.125 C113.48830078 51.27742188 113.48830078 51.27742188 114.47265625 52.453125 C139.75728453 83.08364612 148.20100871 120.0466747 145.30517578 159.06591797 C141.53995588 194.54103902 122.65305388 228.01039023 95.40234375 250.77734375 C60.49036391 278.98437382 21.08696757 284.5572609 -22.4765625 282.125 C-22.4765625 281.465 -22.4765625 280.805 -22.4765625 280.125 C-23.62125 280.00382812 -24.7659375 279.88265625 -25.9453125 279.7578125 C-51.51958106 276.53293769 -74.79055616 263.38731062 -93.4765625 246.125 C-93.98670898 245.65868164 -94.49685547 245.19236328 -95.02246094 244.71191406 C-103.35587097 237.01262528 -110.10991135 228.49629264 -116.4765625 219.125 C-117.03859375 218.30902344 -117.600625 217.49304688 -118.1796875 216.65234375 C-124.10582574 207.4212438 -130.0339044 195.86782113 -132.4765625 185.125 C-132.77433594 184.0009375 -133.07210937 182.876875 -133.37890625 181.71875 C-143.22793439 143.37585723 -139.29344132 102.19320193 -119.08984375 67.76171875 C-114.94437697 61.54974301 -110.30904218 55.81407307 -105.4765625 50.125 C-104.78820312 49.3 -104.09984375 48.475 -103.390625 47.625 C-86.51105588 28.04720979 -64.84270806 15.2671526 -40.4765625 7.125 C-39.72375 6.83882812 -38.9709375 6.55265625 -38.1953125 6.2578125 C-26.18819114 1.77823261 -12.70069039 0.64104431 0 0 Z " fill="#3D92E7" transform="translate(696.4765625,185.875)"/>
<path d="M0 0 C1.44484331 -0.00706922 2.88967921 -0.01581843 4.33450317 -0.02610779 C8.23539926 -0.04849759 12.13588763 -0.04568698 16.03682327 -0.03678632 C19.30217552 -0.03165559 22.56745256 -0.03898569 25.83279705 -0.04625839 C33.53931517 -0.06322378 41.2456351 -0.05972495 48.95214844 -0.04296875 C56.88500048 -0.0260428 64.81730241 -0.04189579 72.75009441 -0.07419163 C79.57927598 -0.10093429 86.4082868 -0.10815119 93.23751545 -0.09967655 C97.30836009 -0.09476188 101.37887379 -0.09688355 105.44967651 -0.11746407 C109.27819894 -0.1358957 113.10593316 -0.12977261 116.93441391 -0.10526466 C118.33356209 -0.10028067 119.73277112 -0.10368356 121.13187027 -0.11641312 C130.66462807 -0.19623887 137.56063574 0.86124569 144.65625 7.52563477 C149.31592725 14.19021765 151.21420576 19.89247254 150.12890625 28.05688477 C147.85887197 37.52531721 139.03408629 45.85858129 131.53515625 51.53344727 C127.90128722 54.97606003 124.62776491 58.67039562 121.37890625 62.47094727 C119.18773981 64.9220826 116.86402287 67.21262948 114.53515625 69.53344727 C112.93647043 71.15352569 111.33883581 72.77464202 109.7421875 74.39672852 C107.94414434 76.21326734 106.14596345 78.02966983 104.34765625 79.84594727 C103.43306641 80.77729492 102.51847656 81.70864258 101.57617188 82.66821289 C100.26616211 83.98789062 100.26616211 83.98789062 98.9296875 85.33422852 C98.13409424 86.14029541 97.33850098 86.9463623 96.51879883 87.77685547 C94.53515625 89.53344727 94.53515625 89.53344727 92.53515625 89.53344727 C92.13296875 90.43063477 92.13296875 90.43063477 91.72265625 91.34594727 C90.53598219 93.5319258 89.43916512 94.9467732 87.53515625 96.53344727 C86.87515625 96.53344727 86.21515625 96.53344727 85.53515625 96.53344727 C85.179375 97.37649414 85.179375 97.37649414 84.81640625 98.23657227 C83.24567928 101.05238768 81.32044161 103.01300143 79.03515625 105.28344727 C78.24109375 106.08266602 77.44703125 106.88188477 76.62890625 107.70532227 C74.53515625 109.53344727 74.53515625 109.53344727 72.53515625 109.53344727 C72.27347656 110.12254883 72.01179687 110.71165039 71.7421875 111.31860352 C70.47092875 113.65130161 69.13285094 115.13699095 67.22265625 116.97094727 C66.60261719 117.57293945 65.98257813 118.17493164 65.34375 118.79516602 C64.74691406 119.36879883 64.15007812 119.94243164 63.53515625 120.53344727 C62.62765625 121.44094727 61.72015625 122.34844727 60.78515625 123.28344727 C60.04265625 124.02594727 59.30015625 124.76844727 58.53515625 125.53344727 C57.97828125 126.13157227 57.42140625 126.72969727 56.84765625 127.34594727 C55.53515625 128.53344727 55.53515625 128.53344727 53.53515625 128.53344727 C53.28443359 129.10869141 53.03371094 129.68393555 52.77539062 130.27661133 C51.36786798 132.83785922 49.753456 134.57402119 47.69140625 136.64282227 C46.93988281 137.39692383 46.18835938 138.15102539 45.4140625 138.92797852 C44.62902344 139.7052832 43.84398437 140.48258789 43.03515625 141.28344727 C42.25011719 142.0762207 41.46507812 142.86899414 40.65625 143.68579102 C39.90472656 144.43473633 39.15320313 145.18368164 38.37890625 145.95532227 C37.68990234 146.64207031 37.00089844 147.32881836 36.29101562 148.03637695 C34.53515625 149.53344727 34.53515625 149.53344727 32.53515625 149.53344727 C32.30828125 150.09032227 32.08140625 150.64719727 31.84765625 151.22094727 C30.15965589 154.19504314 28.06839108 156.25353592 25.53515625 158.53344727 C24.87515625 158.53344727 24.21515625 158.53344727 23.53515625 158.53344727 C23.53515625 159.19344727 23.53515625 159.85344727 23.53515625 160.53344727 C22.87515625 160.53344727 22.21515625 160.53344727 21.53515625 160.53344727 C21.28765625 161.11094727 21.04015625 161.68844727 20.78515625 162.28344727 C19.35215637 164.86284706 17.75090949 166.59466318 15.53515625 168.53344727 C14.87515625 168.53344727 14.21515625 168.53344727 13.53515625 168.53344727 C13.30771729 169.08830811 13.08027832 169.64316895 12.84594727 170.21484375 C11.15593968 173.20422762 9.02208097 175.23459434 6.5625 177.63110352 C6.07938858 178.10664169 5.59627716 178.58217987 5.098526 179.0721283 C3.56131126 180.58499628 2.01783125 182.09121305 0.47265625 183.59594727 C-1.56563976 185.58107859 -3.59725192 187.57270544 -5.625 189.56860352 C-6.52871338 190.44911377 -7.43242676 191.32962402 -8.36352539 192.23681641 C-11.24800262 195.38939887 -11.58914347 197.80873429 -11.61633301 201.92269897 C-11.62467667 202.81991165 -11.63302032 203.71712433 -11.64161682 204.64152527 C-11.64789345 206.11435722 -11.64789345 206.11435722 -11.65429688 207.61694336 C-11.66259018 208.65298203 -11.67088348 209.68902069 -11.6794281 210.75645447 C-11.69683922 213.00887899 -11.71200312 215.26132174 -11.72520447 217.51377487 C-11.74621565 221.07756038 -11.77324087 224.64125474 -11.80187988 228.20498657 C-11.86161071 235.77277184 -11.91373795 243.34059949 -11.96484375 250.90844727 C-12.02406931 259.66980758 -12.08638939 268.4311231 -12.15672302 277.19240189 C-12.18329538 280.70494401 -12.204113 284.21749063 -12.22473145 287.73007202 C-12.24133676 289.8837709 -12.25820881 292.03746775 -12.27539062 294.19116211 C-12.28166725 295.65792137 -12.28166725 295.65792137 -12.28807068 297.15431213 C-12.29641434 298.05716446 -12.304758 298.96001678 -12.31335449 299.89022827 C-12.31850822 300.67077765 -12.32366196 301.45132702 -12.32897186 302.2555294 C-12.72351711 308.87015501 -12.72351711 308.87015501 -15.83984375 311.65844727 C-16.70609375 312.27719727 -17.57234375 312.89594727 -18.46484375 313.53344727 C-18.93664062 314.03231445 -19.4084375 314.53118164 -19.89453125 315.04516602 C-23.43560655 318.40125977 -28.23786863 319.40198565 -32.96484375 319.90844727 C-42.66981224 318.86862921 -47.69807786 314.16526341 -54.46484375 307.53344727 C-55.26486816 306.76194336 -55.26486816 306.76194336 -56.08105469 305.97485352 C-57.75860686 304.35648624 -59.42628585 302.72868941 -61.08984375 301.09594727 C-61.62319336 300.57589111 -62.15654297 300.05583496 -62.70605469 299.52001953 C-63.99867437 298.22973693 -65.23712213 296.88562864 -66.46484375 295.53344727 C-66.46484375 294.87344727 -66.46484375 294.21344727 -66.46484375 293.53344727 C-67.26148438 293.22407227 -67.26148438 293.22407227 -68.07421875 292.90844727 C-71.47257811 290.95383535 -73.97540303 288.3122101 -76.71484375 285.53344727 C-77.26914062 284.98688477 -77.8234375 284.44032227 -78.39453125 283.87719727 C-82.46484375 279.78683397 -82.46484375 279.78683397 -82.46484375 277.53344727 C-83.04234375 277.28336914 -83.61984375 277.03329102 -84.21484375 276.77563477 C-86.7670038 275.36662974 -88.44207437 273.75232963 -90.46484375 271.65844727 C-91.45484375 270.64137695 -91.45484375 270.64137695 -92.46484375 269.60375977 C-93.12484375 268.92055664 -93.78484375 268.23735352 -94.46484375 267.53344727 C-95.20734375 266.82961914 -95.94984375 266.12579102 -96.71484375 265.40063477 C-98.46484375 263.53344727 -98.46484375 263.53344727 -98.46484375 261.53344727 C-99.26148438 261.22407227 -99.26148438 261.22407227 -100.07421875 260.90844727 C-103.47257811 258.95383535 -105.97540303 256.3122101 -108.71484375 253.53344727 C-109.26914062 252.98688477 -109.8234375 252.44032227 -110.39453125 251.87719727 C-114.46484375 247.78683397 -114.46484375 247.78683397 -114.46484375 245.53344727 C-115.33109375 245.19313477 -115.33109375 245.19313477 -116.21484375 244.84594727 C-119.03892846 243.19856452 -120.46254005 241.09889888 -122.46484375 238.53344727 C-123.20734375 237.97657227 -123.94984375 237.41969727 -124.71484375 236.84594727 C-125.29234375 236.41282227 -125.86984375 235.97969727 -126.46484375 235.53344727 C-126.46484375 234.87344727 -126.46484375 234.21344727 -126.46484375 233.53344727 C-127.45484375 233.20344727 -128.44484375 232.87344727 -129.46484375 232.53344727 C-132.15234375 230.09594727 -132.15234375 230.09594727 -134.46484375 227.53344727 C-134.46484375 226.87344727 -134.46484375 226.21344727 -134.46484375 225.53344727 C-135.12484375 225.53344727 -135.78484375 225.53344727 -136.46484375 225.53344727 C-139.08984375 223.15844727 -139.08984375 223.15844727 -141.46484375 220.53344727 C-141.46484375 219.87344727 -141.46484375 219.21344727 -141.46484375 218.53344727 C-142.12484375 218.53344727 -142.78484375 218.53344727 -143.46484375 218.53344727 C-143.46484375 217.87344727 -143.46484375 217.21344727 -143.46484375 216.53344727 C-144.12484375 216.53344727 -144.78484375 216.53344727 -145.46484375 216.53344727 C-146.76171875 215.17797852 -146.76171875 215.17797852 -148.21484375 213.34594727 C-150.19741175 210.94574388 -151.9806055 209.10547475 -154.40234375 207.09594727 C-157.45614394 204.5407267 -159.84265969 201.86633242 -162.40234375 198.83813477 C-164.40250997 196.60310055 -166.5114838 194.52683486 -168.67773438 192.45385742 C-175.18294165 186.18774883 -179.51758491 181.33643112 -179.96484375 172.03344727 C-180.05781592 164.31675706 -175.74191062 158.38913827 -170.6287384 152.99006653 C-170.01133286 152.35856186 -169.39392731 151.72705719 -168.7578125 151.07641602 C-168.10322556 150.39290573 -167.44863861 149.70939545 -166.7742157 149.00517273 C-159.22951554 141.16655294 -151.50758495 133.50083275 -143.77734375 125.84594727 C-140.95798884 123.05332515 -138.14209667 120.25727368 -135.328125 117.45922852 C-134.69586502 116.83526688 -134.06360504 116.21130524 -133.41218567 115.56843567 C-130.19460204 112.36880703 -127.24655499 109.12927971 -124.46484375 105.53344727 C-121.83984375 102.72094727 -121.83984375 102.72094727 -119.46484375 100.53344727 C-118.80484375 100.53344727 -118.14484375 100.53344727 -117.46484375 100.53344727 C-117.23796875 99.95594727 -117.01109375 99.37844727 -116.77734375 98.78344727 C-115.13284728 95.96431046 -113.02929705 94.52089858 -110.46484375 92.53344727 C-109.47484375 91.04844727 -109.47484375 91.04844727 -108.46484375 89.53344727 C-107.80484375 89.53344727 -107.14484375 89.53344727 -106.46484375 89.53344727 C-106.19671875 88.89407227 -105.92859375 88.25469727 -105.65234375 87.59594727 C-104.46484375 85.53344727 -104.46484375 85.53344727 -101.46484375 84.53344727 C-100.96984375 83.04844727 -100.96984375 83.04844727 -100.46484375 81.53344727 C-97.99305697 78.84979304 -95.43322701 76.50801641 -92.58984375 74.22094727 C-90.33597779 72.37425485 -88.46970157 70.44430767 -86.59912109 68.2121582 C-81.09358123 61.85547257 -75.11150354 55.95348387 -69.19140625 49.98657227 C-68.55813793 49.34798027 -67.92486961 48.70938828 -67.27241135 48.05144501 C-63.92601378 44.67848713 -60.57606347 41.30909956 -57.22363281 37.94213867 C-54.46428664 35.16941702 -51.71240808 32.38959339 -48.96679688 29.60327148 C-45.63065881 26.21769849 -42.28230255 22.84467664 -38.92490768 19.48018646 C-37.65528554 18.20388062 -36.38989787 16.92334692 -35.12901688 15.63840485 C-33.36151243 13.83908268 -31.57866201 12.05638599 -29.79150391 10.27661133 C-29.02899574 9.48949516 -29.02899574 9.48949516 -28.25108337 8.68647766 C-19.94312666 0.51710294 -11.25191563 -0.0582141 0 0 Z " fill="#5ABE8B" transform="translate(525.46484375,538.466552734375)"/>
<path d="M0 0 C5.14745642 2.29797162 7.97106918 5.79590629 10 11 C10.56367193 14.66132347 10.54036784 18.27014643 10.50793457 21.96899414 C10.51729451 23.61214521 10.51729451 23.61214521 10.52684355 25.28849125 C10.54278144 28.95426605 10.53016548 32.61937667 10.51757812 36.28515625 C10.52299885 38.91519559 10.53012123 41.5452319 10.53881836 44.17526245 C10.55658733 50.57425247 10.55277091 56.97305463 10.5411678 63.37205195 C10.53212733 68.57349992 10.53091212 73.77489531 10.53526306 78.97634888 C10.53587599 79.7171762 10.53648893 80.45800352 10.53712043 81.22128016 C10.53839936 82.72634532 10.53969621 84.23141046 10.5410108 85.73647559 C10.55241184 99.84325405 10.53931039 113.94992846 10.51780933 128.05668986 C10.49993876 140.1560094 10.503043 152.25517542 10.52148438 164.35449219 C10.54289952 178.41143413 10.55131325 192.46828492 10.53903532 206.5252409 C10.53776115 208.02471096 10.53650367 209.52418103 10.53526306 211.02365112 C10.53433741 212.1302486 10.53433741 212.1302486 10.53339306 213.25920159 C10.52994208 218.45326972 10.53576304 223.64727995 10.54518127 228.84133911 C10.55758339 235.8345715 10.54872976 242.82750921 10.52560425 249.82071304 C10.52031247 252.38819014 10.52183888 254.95569162 10.53065491 257.52315903 C10.5415747 261.0261049 10.5278882 264.52811943 10.50793457 268.03100586 C10.5213189 269.55741998 10.5213189 269.55741998 10.53497362 271.11467075 C10.46669333 277.28857775 9.62498755 280.95379904 6 286 C0.81870782 290.80217324 -3.32211012 291.15059979 -10.1418457 291.16494751 C-10.98230533 291.17059105 -11.82276495 291.1762346 -12.68869305 291.18204916 C-15.51771661 291.19980757 -18.34672285 291.21048255 -21.17578125 291.22119141 C-23.2018252 291.23240785 -25.22786689 291.24404013 -27.25390625 291.25605774 C-32.78175331 291.28748489 -38.30961264 291.31258033 -43.83749771 291.3362546 C-48.48538612 291.35672924 -53.13325699 291.38026559 -57.78113079 291.40379179 C-68.80589205 291.45954292 -79.83066878 291.510187 -90.85546875 291.55761719 C-102.09658166 291.60605587 -113.33763348 291.6624076 -124.57868671 291.72303832 C-134.30258646 291.77521178 -144.02650247 291.82233864 -153.75044537 291.86572587 C-159.52282661 291.89151486 -165.29518605 291.91889803 -171.0675354 291.9510994 C-194.3580197 292.07861 -217.64661894 292.09113872 -240.93544579 291.74204135 C-243.19445777 291.70956315 -245.45354198 291.68173629 -247.71267128 291.65882802 C-250.83385392 291.6252856 -253.95413942 291.57273033 -257.07495117 291.51473999 C-257.99528074 291.50807052 -258.91561031 291.50140106 -259.86382866 291.49452949 C-264.97254031 291.37478452 -268.58057019 290.84101567 -273 288 C-277.47296941 283.15428314 -279.57663132 279.02722239 -279.45703125 272.44921875 C-278.41027778 266.83969375 -274.24926033 261.7020953 -270 258 C-269.34 258 -268.68 258 -268 258 C-267.7628125 257.43829102 -267.525625 256.87658203 -267.28125 256.29785156 C-265.70680643 253.47417342 -263.78315455 251.52385158 -261.5 249.234375 C-260.613125 248.34492188 -259.72625 247.45546875 -258.8125 246.5390625 C-257.884375 245.61867188 -256.95625 244.69828125 -256 243.75 C-254.6078125 242.34621094 -254.6078125 242.34621094 -253.1875 240.9140625 C-252.300625 240.02976562 -251.41375 239.14546875 -250.5 238.234375 C-249.6853125 237.42194336 -248.870625 236.60951172 -248.03125 235.77246094 C-246 234 -246 234 -244 234 C-243.79375 233.46890625 -243.5875 232.9378125 -243.375 232.390625 C-241.42038808 228.99226564 -238.77876283 226.48944072 -236 223.75 C-235.4534375 223.19570313 -234.906875 222.64140625 -234.34375 222.0703125 C-230.2533867 218 -230.2533867 218 -228 218 C-227.7627461 217.43770659 -227.52549219 216.87541319 -227.28104877 216.29608059 C-225.70599838 213.47304784 -223.79325031 211.54762363 -221.5032196 209.26271057 C-221.04359717 208.80137928 -220.58397473 208.340048 -220.11042434 207.86473697 C-218.5714103 206.3224328 -217.02536467 204.78737874 -215.47924805 203.25219727 C-214.37334969 202.14686317 -213.26789177 201.04108826 -212.1628418 199.93490601 C-209.16098412 196.93247403 -206.15299425 193.93625401 -203.14388251 190.94109464 C-199.99426581 187.80398724 -196.85031822 184.66120888 -193.70576477 181.51902771 C-187.74465363 175.56413638 -181.77846445 169.61435974 -175.81043798 163.6663999 C-169.03700618 156.91525675 -162.26919034 150.15849601 -155.50187242 143.40122521 C-143.92929585 131.84602378 -132.3525447 120.29501874 -120.77101135 108.74879456 C-120.28053135 108.25979374 -119.79005135 107.77079293 -119.28470832 107.26697391 C-117.98132125 105.96754816 -116.67787105 104.66818573 -115.3744154 103.36882877 C-114.59085832 102.58711528 -113.80730124 101.80540178 -113 101 C-112.12595929 100.13654937 -111.25191858 99.27309874 -110.35139179 98.38348293 C-107.90014406 95.96535331 -107.90014406 95.96535331 -105.5 93 C-103.12885733 90.15462879 -100.65020627 87.58395112 -98 85 C-96.875929 83.87686864 -95.75207615 82.75351826 -94.62921143 81.62918091 C-92.59966907 79.59967657 -90.56618208 77.57415583 -88.53271484 75.54858398 C-84.32824888 71.36006797 -80.12595212 67.16938865 -75.92526817 62.97708035 C-73.39257562 60.4496226 -70.85894701 57.92311756 -68.32324219 55.39868164 C-65.85788219 52.94420139 -63.39498664 50.48727278 -60.93376541 48.02864265 C-59.54676747 46.64437775 -58.15723939 45.26264945 -56.76766968 43.88096619 C-55.9231424 43.03651443 -55.07861511 42.19206268 -54.20849609 41.32202148 C-53.46634857 40.58209457 -52.72420105 39.84216766 -51.95956421 39.07981873 C-49.98124674 37.0590509 -49.98124674 37.0590509 -48.40884399 34.87049866 C-46.76686872 32.69047549 -44.7902664 31.18328295 -42.671875 29.484375 C-40.7596964 27.78664634 -39.15529972 25.94827312 -37.5 24 C-34.59598682 20.58651082 -31.44628398 17.87190332 -28 15 C-26.83461579 13.70482822 -25.68994647 12.3908278 -24.5625 11.0625 C-17.02354764 2.21679589 -11.84254771 -1.08505018 0 0 Z " fill="#292A2C" transform="translate(464,190)"/>
<path d="M0 0 C0.804375 0.3403125 0.804375 0.3403125 1.625 0.6875 C0.820625 1.038125 0.01625 1.38875 -0.8125 1.75 C-6.41145117 4.54279426 -11.89973707 8.47460561 -15.375 13.6875 C-16.035 13.6875 -16.695 13.6875 -17.375 13.6875 C-17.63796875 14.27660156 -17.9009375 14.86570312 -18.171875 15.47265625 C-20.81076513 20.33061308 -25.44010768 23.98323253 -29.6875 27.4375 C-32.51172492 29.58719728 -32.51172492 29.58719728 -34.375 32.6875 C-35.035 32.6875 -35.695 32.6875 -36.375 32.6875 C-36.46601486 33.27983429 -36.55702972 33.87216858 -36.65080261 34.48245239 C-37.55632989 37.2396161 -38.71886733 38.15425993 -40.9621582 39.96826172 C-45.19594809 43.50994736 -49.09485628 47.27850997 -52.98046875 51.1953125 C-54.01111198 52.22807816 -54.01111198 52.22807816 -55.06257629 53.28170776 C-57.23160616 55.45627327 -59.39711678 57.63430386 -61.5625 59.8125 C-63.02515629 61.28018149 -64.48804504 62.74763134 -65.95117188 64.21484375 C-68.634496 66.90628649 -71.31648864 69.59904009 -73.99682617 72.29345703 C-79.03890975 77.36064129 -84.10087134 82.40770792 -89.16549683 87.4523468 C-92.395564 90.67077945 -95.62375502 93.89108973 -98.85133171 97.11201954 C-101.29197605 99.54745157 -103.73354726 101.98193918 -106.17724609 104.41430664 C-109.0142218 107.23822119 -111.84703458 110.06628051 -114.6796875 112.89453125 C-115.54657196 113.75625443 -116.41345642 114.6179776 -117.30661011 115.5058136 C-121.68928217 119.88808403 -125.92575307 124.33028039 -129.95037842 129.04489136 C-132.38420033 131.85112212 -135.08548965 134.36756061 -137.7734375 136.92578125 C-139.60404557 138.70103029 -139.60404557 138.70103029 -140.375 141.6875 C-142.03560765 142.6975297 -143.70364739 143.69535171 -145.375 144.6875 C-147.46583697 146.56678054 -149.46021487 148.44777911 -151.4375 150.4375 C-151.95376953 150.93765625 -152.47003906 151.4378125 -153.00195312 151.953125 C-157.29764463 156.24334429 -160.8280784 160.57085117 -161.90625 166.71484375 C-161.80182432 176.43948509 -159.75195076 181.4696899 -152.9375 188.375 C-151.42129076 189.81737645 -149.90032892 191.25477115 -148.375 192.6875 C-146.70667101 194.35250268 -145.04035737 196.01952506 -143.375 197.6875 C-142.2685572 198.78483983 -141.16133002 199.88138915 -140.0534668 200.97729492 C-136.75775795 204.2375598 -133.4680362 207.50379268 -130.18041992 210.7722168 C-128.76127871 212.18121544 -127.34036036 213.58842628 -125.91772461 214.99389648 C-123.86105201 217.0264425 -121.81079006 219.06526357 -119.76171875 221.10546875 C-118.80092659 222.05077705 -118.80092659 222.05077705 -117.82072449 223.0151825 C-116.30038518 224.53512886 -114.83203826 226.10676977 -113.375 227.6875 C-113.375 228.3475 -113.375 229.0075 -113.375 229.6875 C-112.79073242 229.94724609 -112.20646484 230.20699219 -111.60449219 230.47460938 C-109.21938836 231.772156 -107.62309363 233.18091122 -105.703125 235.09375 C-104.70732422 236.08568359 -104.70732422 236.08568359 -103.69140625 237.09765625 C-103.00949219 237.78730469 -102.32757813 238.47695313 -101.625 239.1875 C-100.92761719 239.87714844 -100.23023438 240.56679688 -99.51171875 241.27734375 C-98.85300781 241.93863281 -98.19429688 242.59992188 -97.515625 243.28125 C-96.91266602 243.88646484 -96.30970703 244.49167969 -95.68847656 245.11523438 C-94.375 246.6875 -94.375 246.6875 -94.375 248.6875 C-93.84390625 248.89375 -93.3128125 249.1 -92.765625 249.3125 C-89.36726564 251.26711192 -86.86444072 253.90873717 -84.125 256.6875 C-83.57070313 257.2340625 -83.01640625 257.780625 -82.4453125 258.34375 C-78.375 262.4341133 -78.375 262.4341133 -78.375 264.6875 C-77.52439247 265.04915001 -77.52439247 265.04915001 -76.65660095 265.41810608 C-73.91466984 266.94360978 -72.07409422 268.76331558 -69.86938477 270.99780273 C-68.98489151 271.88890244 -68.10039825 272.78000214 -67.18910217 273.69810486 C-66.72115801 274.17428694 -66.25321384 274.65046902 -65.77108955 275.14108086 C-64.29972803 276.63806238 -62.82212752 278.12862525 -61.34275818 279.61769104 C-57.66982114 283.31731533 -54.00781472 287.02769912 -50.34545898 290.73779297 C-47.24883481 293.87395865 -44.14809684 297.0059464 -41.04182243 300.13255501 C-39.59032323 301.59696405 -38.14501052 303.06729339 -36.69984436 304.53794861 C-35.81219894 305.43220047 -34.92455353 306.32645233 -34.01000977 307.24780273 C-33.23375748 308.03452866 -32.45750519 308.82125458 -31.6577301 309.63182068 C-29.36492107 311.69657643 -27.06916685 313.1973619 -24.375 314.6875 C-25.365 315.0175 -26.355 315.3475 -27.375 315.6875 C-33.70522099 312.33099425 -38.88880642 306.47909573 -43.875 301.4375 C-44.60203125 300.71820312 -45.3290625 299.99890625 -46.078125 299.2578125 C-46.76390625 298.56945312 -47.4496875 297.88109375 -48.15625 297.171875 C-48.77564453 296.55022461 -49.39503906 295.92857422 -50.03320312 295.28808594 C-51.375 293.6875 -51.375 293.6875 -51.375 291.6875 C-52.17164063 291.378125 -52.17164063 291.378125 -52.984375 291.0625 C-56.38273436 289.10788808 -58.88555928 286.46626283 -61.625 283.6875 C-62.17929687 283.1409375 -62.73359375 282.594375 -63.3046875 282.03125 C-67.375 277.9408867 -67.375 277.9408867 -67.375 275.6875 C-67.9525 275.43742187 -68.53 275.18734375 -69.125 274.9296875 C-71.67716005 273.52068248 -73.35223062 271.90638237 -75.375 269.8125 C-76.365 268.79542969 -76.365 268.79542969 -77.375 267.7578125 C-78.035 267.07460938 -78.695 266.39140625 -79.375 265.6875 C-80.1175 264.98367188 -80.86 264.27984375 -81.625 263.5546875 C-83.375 261.6875 -83.375 261.6875 -83.375 259.6875 C-84.17164063 259.378125 -84.17164063 259.378125 -84.984375 259.0625 C-88.38273436 257.10788808 -90.88555928 254.46626283 -93.625 251.6875 C-94.17929687 251.1409375 -94.73359375 250.594375 -95.3046875 250.03125 C-99.375 245.9408867 -99.375 245.9408867 -99.375 243.6875 C-100.24125 243.3471875 -100.24125 243.3471875 -101.125 243 C-103.94908471 241.35261725 -105.3726963 239.25295162 -107.375 236.6875 C-108.1175 236.130625 -108.86 235.57375 -109.625 235 C-110.2025 234.566875 -110.78 234.13375 -111.375 233.6875 C-111.375 233.0275 -111.375 232.3675 -111.375 231.6875 C-112.365 231.3575 -113.355 231.0275 -114.375 230.6875 C-117.0625 228.25 -117.0625 228.25 -119.375 225.6875 C-119.375 225.0275 -119.375 224.3675 -119.375 223.6875 C-120.035 223.6875 -120.695 223.6875 -121.375 223.6875 C-124 221.3125 -124 221.3125 -126.375 218.6875 C-126.375 218.0275 -126.375 217.3675 -126.375 216.6875 C-127.035 216.6875 -127.695 216.6875 -128.375 216.6875 C-128.375 216.0275 -128.375 215.3675 -128.375 214.6875 C-129.035 214.6875 -129.695 214.6875 -130.375 214.6875 C-131.671875 213.33203125 -131.671875 213.33203125 -133.125 211.5 C-135.107568 209.09979661 -136.89076175 207.25952749 -139.3125 205.25 C-142.36630019 202.69477944 -144.75281594 200.02038516 -147.3125 196.9921875 C-149.31266622 194.75715328 -151.42164005 192.68088759 -153.58789062 190.60791016 C-160.0930979 184.34180156 -164.42774116 179.49048386 -164.875 170.1875 C-164.96797217 162.4708098 -160.65206687 156.54319101 -155.53889465 151.14411926 C-154.92148911 150.51261459 -154.30408356 149.88110992 -153.66796875 149.23046875 C-153.01338181 148.54695847 -152.35879486 147.86344818 -151.68437195 147.15922546 C-144.13967179 139.32060568 -136.4177412 131.65488548 -128.6875 124 C-125.86814509 121.20737789 -123.05225292 118.41132642 -120.23828125 115.61328125 C-119.60602127 114.98931961 -118.97376129 114.36535797 -118.32234192 113.7224884 C-115.10475829 110.52285977 -112.15671124 107.28333245 -109.375 103.6875 C-106.75 100.875 -106.75 100.875 -104.375 98.6875 C-103.715 98.6875 -103.055 98.6875 -102.375 98.6875 C-102.148125 98.11 -101.92125 97.5325 -101.6875 96.9375 C-100.04300353 94.11836319 -97.9394533 92.67495131 -95.375 90.6875 C-94.385 89.2025 -94.385 89.2025 -93.375 87.6875 C-92.715 87.6875 -92.055 87.6875 -91.375 87.6875 C-91.106875 87.048125 -90.83875 86.40875 -90.5625 85.75 C-89.375 83.6875 -89.375 83.6875 -86.375 82.6875 C-85.88 81.2025 -85.88 81.2025 -85.375 79.6875 C-82.90321322 77.00384578 -80.34338326 74.66206914 -77.5 72.375 C-75.24690472 70.52922758 -73.38412218 68.60088361 -71.51586914 66.3684082 C-65.98729922 59.98490945 -59.95537275 54.08266417 -53.99609375 48.10546875 C-53.35908098 47.4656286 -52.72206821 46.82578846 -52.06575203 46.16655922 C-48.70285744 42.78876598 -45.33716982 39.41378672 -41.96899414 36.04125977 C-38.50005903 32.56681485 -35.04051952 29.08316794 -31.58303738 25.59733105 C-28.91058972 22.90624818 -26.23144642 20.2219079 -23.55043221 17.53936195 C-22.27175547 16.25766655 -20.99557068 14.97347987 -19.72198296 13.68672752 C-17.94204219 11.88968786 -16.15282753 10.10240011 -14.36108398 8.31713867 C-13.84195938 7.78879929 -13.32283478 7.2604599 -12.78797913 6.71611023 C-9.25788922 3.22577148 -5.25370025 -0.69127635 0 0 Z " fill="#51A97A" transform="translate(510.375,540.3125)"/>
<path d="M0 0 C87.45 0 174.9 0 265 0 C265 0.66 265 1.32 265 2 C237.9787117 2.15547921 210.9573907 2.3034365 183.93601513 2.4429636 C171.38334736 2.50794692 158.83070009 2.57519293 146.27807617 2.64819336 C135.30926181 2.71197685 124.34043279 2.77108007 113.37156564 2.82505554 C107.58907306 2.8536604 101.80661043 2.88427195 96.02416039 2.92053413 C64.00001418 3.11940028 32.01547597 2.77737115 0 2 C0 1.34 0 0.68 0 0 Z " fill="#171819" transform="translate(197,479)"/>
<path d="M0 0 C0.53625 0.226875 1.0725 0.45375 1.625 0.6875 C0.820625 1.038125 0.01625 1.38875 -0.8125 1.75 C-6.41145117 4.54279426 -11.89973707 8.47460561 -15.375 13.6875 C-16.035 13.6875 -16.695 13.6875 -17.375 13.6875 C-17.63796875 14.27660156 -17.9009375 14.86570312 -18.171875 15.47265625 C-20.81076513 20.33061308 -25.44010768 23.98323253 -29.6875 27.4375 C-32.51172492 29.58719728 -32.51172492 29.58719728 -34.375 32.6875 C-35.035 32.6875 -35.695 32.6875 -36.375 32.6875 C-36.46601486 33.27983429 -36.55702972 33.87216858 -36.65080261 34.48245239 C-37.55632989 37.2396161 -38.71886733 38.15425993 -40.9621582 39.96826172 C-45.19594809 43.50994736 -49.09485628 47.27850997 -52.98046875 51.1953125 C-54.01111198 52.22807816 -54.01111198 52.22807816 -55.06257629 53.28170776 C-57.23160616 55.45627327 -59.39711678 57.63430386 -61.5625 59.8125 C-63.02515629 61.28018149 -64.48804504 62.74763134 -65.95117188 64.21484375 C-68.634496 66.90628649 -71.31648864 69.59904009 -73.99682617 72.29345703 C-76.78504307 75.09599526 -79.57820833 77.8935151 -82.375 80.6875 C-83.48294922 81.79544922 -83.48294922 81.79544922 -84.61328125 82.92578125 C-86.53385417 84.84635417 -88.45442708 86.76692708 -90.375 88.6875 C-91.365 88.3575 -92.355 88.0275 -93.375 87.6875 C-92.715 87.6875 -92.055 87.6875 -91.375 87.6875 C-91.106875 87.048125 -90.83875 86.40875 -90.5625 85.75 C-89.375 83.6875 -89.375 83.6875 -86.375 82.6875 C-86.045 81.6975 -85.715 80.7075 -85.375 79.6875 C-82.90321322 77.00384578 -80.34338326 74.66206914 -77.5 72.375 C-75.24690472 70.52922758 -73.38412218 68.60088361 -71.51586914 66.3684082 C-65.98729922 59.98490945 -59.95537275 54.08266417 -53.99609375 48.10546875 C-53.35908098 47.4656286 -52.72206821 46.82578846 -52.06575203 46.16655922 C-48.70285744 42.78876598 -45.33716982 39.41378672 -41.96899414 36.04125977 C-38.50005903 32.56681485 -35.04051952 29.08316794 -31.58303738 25.59733105 C-28.91058972 22.90624818 -26.23144642 20.2219079 -23.55043221 17.53936195 C-22.27175547 16.25766655 -20.99557068 14.97347987 -19.72198296 13.68672752 C-17.94204219 11.88968786 -16.15282753 10.10240011 -14.36108398 8.31713867 C-13.84195938 7.78879929 -13.32283478 7.2604599 -12.78797913 6.71611023 C-9.25788922 3.22577148 -5.25370025 -0.69127635 0 0 Z " fill="#53AC7C" transform="translate(510.375,540.3125)"/>
<path d="M0 0 C3.31362549 4.97043824 2.33779911 10.65883788 2.3125 16.5 C2.30512817 18.46682739 2.30512817 18.46682739 2.29760742 20.47338867 C1.84160928 58.55507966 -13.65204117 93.26887745 -40.70336914 119.99780273 C-44.56794261 123.71577354 -48.59543194 126.95068365 -53 130 C-53.66 129.67 -54.32 129.34 -55 129 C-54.11699219 128.27296875 -53.23398437 127.5459375 -52.32421875 126.796875 C-25.01069298 104.04453201 -5.38734573 72.97365946 -1.26123047 37.11914062 C-0.22897411 24.79380678 -0.19264257 12.36105431 0 0 Z " fill="#3780CD" transform="translate(840,310)"/>
<path d="M0 0 C0.83868507 2.91795065 1.11954781 5.49103017 1.10247803 8.52296448 C1.09977402 9.42444214 1.09707001 10.3259198 1.09428406 11.25471497 C1.08605118 12.23614975 1.0778183 13.21758453 1.06933594 14.22875977 C1.06454727 15.26815704 1.05975861 16.30755432 1.05482483 17.37844849 C1.03713184 20.81616324 1.0113924 24.25375283 0.984375 27.69140625 C0.96768541 30.07746868 0.95102317 32.46353131 0.93438721 34.84959412 C0.89791296 39.85053444 0.85668152 44.85141281 0.81298828 49.85229492 C0.75792037 56.27070927 0.72143459 62.68908703 0.68935776 69.10765171 C0.6615448 74.03441777 0.62049342 78.96100889 0.57575226 83.88764763 C0.55651745 86.25476564 0.54224181 88.6219292 0.53295135 90.98910713 C0.51867766 94.293244 0.48580776 97.59669217 0.44824219 100.90063477 C0.44810623 101.88409378 0.44797028 102.8675528 0.4478302 103.8808136 C0.43384689 104.77947144 0.41986359 105.67812927 0.40545654 106.60401917 C0.39954876 107.38511331 0.39364098 108.16620745 0.38755417 108.97097111 C-0.0930789 111.48731196 -1.06098999 112.38893304 -3 114 C-2.91615084 99.57911697 -2.82090527 85.158348 -2.71247292 70.73762798 C-2.66246144 64.04198387 -2.6158868 57.34635969 -2.578125 50.65063477 C-2.54133353 44.19261887 -2.49499031 37.73473656 -2.44193649 31.27683449 C-2.42335987 28.80922596 -2.40826409 26.34158876 -2.39665604 23.87393761 C-2.37984958 20.42582808 -2.35082788 16.97802671 -2.31884766 13.5300293 C-2.31668747 12.50288315 -2.31452728 11.475737 -2.31230164 10.41746521 C-2.30113815 9.47937012 -2.28997467 8.54127502 -2.2784729 7.57475281 C-2.27294214 6.75896602 -2.26741138 5.94317923 -2.26171303 5.10267162 C-2 3 -2 3 0 0 Z " fill="#49A57B" transform="translate(513,732)"/>
<path d="M0 0 C2.51616593 2.3009187 4.09177118 4.6920427 5.8125 7.625 C9.16935389 12.99310323 12.9763955 17.8651433 17 22.75 C17.58112549 23.45850098 18.16225098 24.16700195 18.76098633 24.89697266 C40.62554676 51.14181215 70.76801717 65.33715091 104 71 C104 71.33 104 71.66 104 72 C78.64271362 73.81123474 51.05579648 57.87917335 32.55078125 41.8828125 C29.99880929 39.62394605 27.49328724 37.32338018 25 35 C24.25878906 34.32453125 23.51757812 33.6490625 22.75390625 32.953125 C13.81985641 24.48090662 4.91911169 13.3873359 0 2 C0 1.34 0 0.68 0 0 Z " fill="#3781CD" transform="translate(575,394)"/>
<path d="M0 0 C26.01659202 0.8392449 51.66488442 17.63499636 70 35 C65.77011242 35 63.73152694 32.58701258 60.625 30 C44.54094687 17.04080107 26.79113069 8.5622132 7 3 C5.67951675 2.62299339 4.35919801 2.24540997 3.0390625 1.8671875 C2.03617188 1.58101562 1.03328125 1.29484375 0 1 C0 0.67 0 0.34 0 0 Z " fill="#357FCE" transform="translate(728,190)"/>
<path d="M0 0 C-0.54825439 0.235979 -1.09650879 0.47195801 -1.66137695 0.71508789 C-17.78012208 7.69463475 -33.78721895 15.57482143 -46.25390625 28.30078125 C-48 30 -48 30 -50 30 C-50.24492188 30.57234375 -50.48984375 31.1446875 -50.7421875 31.734375 C-52.21110099 34.38024402 -53.95348244 36.14853139 -56.125 38.25 C-56.84945312 38.95640625 -57.57390625 39.6628125 -58.3203125 40.390625 C-58.87460937 40.92171875 -59.42890625 41.4528125 -60 42 C-60 36.89907085 -55.92658659 33.96994027 -52.48486328 30.46191406 C-39.68624135 17.86110049 -25.2650406 8.49895231 -9 1 C-8.12472656 0.58621094 -7.24945312 0.17242187 -6.34765625 -0.25390625 C-3.69569141 -1.09671038 -2.60424449 -0.76813377 0 0 Z " fill="#3781CE" transform="translate(651,197)"/>
<path d="M0 0 C0.66 0.33 1.32 0.66 2 1 C1.51789063 1.53109375 1.03578125 2.0621875 0.5390625 2.609375 C-0.09257812 3.31578125 -0.72421875 4.0221875 -1.375 4.75 C-2.00148438 5.44609375 -2.62796875 6.1421875 -3.2734375 6.859375 C-7.83416474 12.5138513 -7.70177666 17.93666347 -7 25 C-5.1090616 32.29724549 0.67570806 37.02231657 6 42 C10.66666667 46.66666667 15.33333333 51.33333333 20 56 C19.67 56.66 19.34 57.32 19 58 C14.54497282 54.36324311 10.7297587 50.6603771 7.02734375 46.26953125 C5.04098316 44.04587903 2.94271469 41.98340349 0.78930664 39.92260742 C-5.71642477 33.65563819 -10.05267958 28.80426472 -10.5 19.5 C-10.2026081 12.33285521 -7.72884177 7.56142919 -2.75 2.5 C-1.8425 1.675 -0.935 0.85 0 0 Z " fill="#4A9E72" transform="translate(356,691)"/>
<path d="M0 0 C0.78246682 2.76219329 1.11678961 5.18237438 1.08229065 8.04962158 C1.07525116 8.84605072 1.06821167 9.64247986 1.06095886 10.46304321 C1.04801285 11.32763153 1.03506683 12.19221985 1.02172852 13.08300781 C1.0073172 14.45913742 1.0073172 14.45913742 0.99261475 15.86306763 C0.95965379 18.89316553 0.91931027 21.92311796 0.87890625 24.953125 C0.85460231 27.05490609 0.83075888 29.15669255 0.80735779 31.25848389 C0.74454422 36.78888063 0.67546976 42.3191822 0.60510254 47.8494873 C0.53439453 53.49336414 0.46959231 59.13730841 0.40429688 64.78125 C0.27531966 75.85424079 0.13972981 86.92714004 0 98 C-0.33 98 -0.66 98 -1 98 C-1.17685424 85.66549253 -1.34281763 73.33089163 -1.49477577 60.99605083 C-1.56567612 55.26884416 -1.64036486 49.54173854 -1.72363281 43.81469727 C-1.80381307 38.29052617 -1.87414476 32.76631035 -1.93757248 27.24192238 C-1.96354882 25.13150199 -1.99310811 23.02112264 -2.02626419 20.91080284 C-2.0720052 17.96098911 -2.10514524 15.01128811 -2.13525391 12.0612793 C-2.1517952 11.18374496 -2.16833649 10.30621063 -2.18537903 9.40208435 C-2.22810432 3.34215648 -2.22810432 3.34215648 0 0 Z " fill="#53AC7F" transform="translate(513,732)"/>
<path d="M0 0 C-1.28519565 2.86697492 -2.57129254 4.97607712 -5 7 C-5.66 7 -6.32 7 -7 7 C-7.2371875 7.56203125 -7.474375 8.1240625 -7.71875 8.703125 C-9.28947697 11.51894042 -11.21471464 13.47955416 -13.5 15.75 C-14.2940625 16.54921875 -15.088125 17.3484375 -15.90625 18.171875 C-18 20 -18 20 -20 20 C-20.2475 20.639375 -20.495 21.27875 -20.75 21.9375 C-22 24 -22 24 -24.078125 24.62890625 C-24.71234375 24.75136719 -25.3465625 24.87382813 -26 25 C-18.94975689 16.63371151 -18.94975689 16.63371151 -16 14 C-15.34 14 -14.68 14 -14 14 C-13.6596875 13.17242188 -13.6596875 13.17242188 -13.3125 12.328125 C-11.61274074 9.31307583 -9.45195184 7.18769631 -7 4.75 C-6.113125 3.85796875 -5.22625 2.9659375 -4.3125 2.046875 C-2 0 -2 0 0 0 Z " fill="#52AD7C" transform="translate(618,628)"/>
<path d="M0 0 C0.33 0.99 0.66 1.98 1 3 C-0.66666667 4.66666667 -2.33333333 6.33333333 -4 8 C-4.886875 8.928125 -5.77375 9.85625 -6.6875 10.8125 C-9 13 -9 13 -11 13 C-11.268125 13.598125 -11.53625 14.19625 -11.8125 14.8125 C-12.99917406 16.99847854 -14.09599113 18.41332594 -16 20 C-16.66 20 -17.32 20 -18 20 C-16.5735422 16.7413364 -14.83295838 14.5975146 -12.3046875 12.109375 C-11.23154297 11.04589844 -11.23154297 11.04589844 -10.13671875 9.9609375 C-9.39035156 9.23132813 -8.64398437 8.50171875 -7.875 7.75 C-7.12089844 7.00492188 -6.36679687 6.25984375 -5.58984375 5.4921875 C-3.73099228 3.6568658 -1.86762995 1.8263809 0 0 Z " fill="#50AC7B" transform="translate(590,654)"/>
<path d="M0 0 C6.01541596 0.3007708 9.69659923 3.06206851 14 7 C15.79656298 8.99237366 16.77750669 10.55501338 18 13 C17.58984375 15.1796875 17.58984375 15.1796875 17 17 C16.18357746 15.73168307 15.37200895 14.46024069 14.5625 13.1875 C14.11003906 12.47980469 13.65757812 11.77210938 13.19140625 11.04296875 C12 9 12 9 11 6 C8.75256244 4.84979475 8.75256244 4.84979475 6 4 C4.906875 3.62875 3.81375 3.2575 2.6875 2.875 C1.800625 2.58625 0.91375 2.2975 0 2 C0 1.34 0 0.68 0 0 Z " fill="#54AC81" transform="translate(656,539)"/>
<path d="M0 0 C0.556875 0.226875 1.11375 0.45375 1.6875 0.6875 C0.6975 0.6875 -0.2925 0.6875 -1.3125 0.6875 C-1.3125 1.6775 -1.3125 2.6675 -1.3125 3.6875 C-5.08828157 6.65418552 -8.71124735 8.37285639 -13.3125 9.6875 C-5.04545455 -0.68181818 -5.04545455 -0.68181818 0 0 Z " fill="#313234" transform="translate(454.3125,190.3125)"/>
<path d="M0 0 C-1.58561638 3.85593074 -4.06509954 6.33216291 -7 9.25 C-7.886875 10.14203125 -8.77375 11.0340625 -9.6875 11.953125 C-12 14 -12 14 -14 14 C-12.41438362 10.14406926 -9.93490046 7.66783709 -7 4.75 C-6.113125 3.85796875 -5.22625 2.9659375 -4.3125 2.046875 C-2 0 -2 0 0 0 Z " fill="#51AD7C" transform="translate(538,708)"/>
<path d="M0 0 C0.33 0 0.66 0 1 0 C1.15855469 0.74765625 1.31710938 1.4953125 1.48046875 2.265625 C2.88075944 8.52921422 2.88075944 8.52921422 6.5625 13.625 C8.02373872 14.44928851 9.49942141 15.2497107 11 16 C11 16.66 11 17.32 11 18 C8.34303932 17.84817368 6.55765476 17.52675976 4.58984375 15.66796875 C1.27386554 11.69459544 -0.135304 9.47127972 -0.0625 4.375 C-0.05347656 3.55773437 -0.04445312 2.74046875 -0.03515625 1.8984375 C-0.02355469 1.27195312 -0.01195312 0.64546875 0 0 Z " fill="#202122" transform="translate(186,462)"/>
<path d="M0 0 C-1.53218685 3.63061667 -3.7183144 5.9863773 -6.5 8.75 C-7.69109375 9.94882812 -7.69109375 9.94882812 -8.90625 11.171875 C-11 13 -11 13 -13 13 C-11.46781315 9.36938333 -9.2816856 7.0136227 -6.5 4.25 C-5.7059375 3.45078125 -4.911875 2.6515625 -4.09375 1.828125 C-2 0 -2 0 0 0 Z " fill="#53AD7C" transform="translate(571,675)"/>
<path d="M0 0 C3.14906415 1.41602213 5.49523672 3.13735082 8.0625 5.4375 C8.73410156 6.03433594 9.40570313 6.63117187 10.09765625 7.24609375 C11.7754479 8.79296942 13.40159243 10.37171566 15 12 C10.33442398 11.52083273 8.08557714 9.70886772 4.6875 6.5625 C3.80449219 5.75941406 2.92148437 4.95632813 2.01171875 4.12890625 C0 2 0 2 0 0 Z " fill="#4EA577" transform="translate(471,844)"/>
<path d="M0 0 C0.33 1.32 0.66 2.64 1 4 C0.34 4 -0.32 4 -1 4 C-1.0825 4.61875 -1.165 5.2375 -1.25 5.875 C-2 8 -2 8 -3.875 9.3125 C-6 10 -6 10 -9 9 C-6 6 -3 3 0 0 Z " fill="#2F3132" transform="translate(376,265)"/>
<path d="M0 0 C-1.40844718 3.21524305 -3.10344786 5.32183868 -5.625 7.75 C-6.57246094 8.67039062 -6.57246094 8.67039062 -7.5390625 9.609375 C-8.02117188 10.06828125 -8.50328125 10.5271875 -9 11 C-9.99 10.67 -10.98 10.34 -12 10 C-10.38113585 8.32737283 -8.7547271 6.66204463 -7.125 5 C-6.22007812 4.071875 -5.31515625 3.14375 -4.3828125 2.1875 C-2 0 -2 0 0 0 Z " fill="#51AC7C" transform="translate(642,604)"/>
<path d="M0 0 C0.33 1.32 0.66 2.64 1 4 C-0.28935919 5.14842923 -1.58156579 6.29366227 -2.875 7.4375 C-3.95394531 8.39462891 -3.95394531 8.39462891 -5.0546875 9.37109375 C-7 11 -7 11 -9 12 C-8.45015228 8.12488273 -6.72444669 6.40423494 -3.9375 3.75 C-3.20402344 3.04359375 -2.47054688 2.3371875 -1.71484375 1.609375 C-1.14894531 1.07828125 -0.58304687 0.5471875 0 0 Z " fill="#242526" transform="translate(350,292)"/>
<path d="M0 0 C0.66 0.33 1.32 0.66 2 1 C1.67 1.66 1.34 2.32 1 3 C0.34 3 -0.32 3 -1 3 C-1.268125 3.598125 -1.53625 4.19625 -1.8125 4.8125 C-2.99917406 6.99847854 -4.09599113 8.41332594 -6 10 C-6.66 10 -7.32 10 -8 10 C-6.34908222 5.70761377 -3.26245434 3.1206085 0 0 Z " fill="#4FA978" transform="translate(548,696)"/>
<path d="M0 0 C0 3.66842255 -0.79029126 5.10451959 -3 8 C-5.6875 8.8125 -5.6875 8.8125 -8 9 C-7.04270084 7.87411986 -6.08412105 6.7493285 -5.125 5.625 C-4.59132813 4.99851562 -4.05765625 4.37203125 -3.5078125 3.7265625 C-2.38567993 2.44163349 -1.20628025 1.20628025 0 0 Z " fill="#313233" transform="translate(293,349)"/>
<path d="M0 0 C-1.55603771 3.81936528 -3.95604931 6.26044438 -7 9 C-7.66 9 -8.32 9 -9 9 C-7.45665977 5.21180126 -4.44676575 0 0 0 Z " fill="#50AB7B" transform="translate(630,616)"/>
<path d="M0 0 C0.66 1.32 1.32 2.64 2 4 C-0.8125 6.0625 -0.8125 6.0625 -4 8 C-4.99 7.67 -5.98 7.34 -7 7 C-5.71034824 5.62437146 -4.37310707 4.29233607 -3 3 C-2.34 3 -1.68 3 -1 3 C-0.67 2.01 -0.34 1.02 0 0 Z " fill="#303132" transform="translate(221,421)"/>
<path d="M0 0 C0.66 0.33 1.32 0.66 2 1 C0.90344712 2.31886772 -0.20253423 3.62990057 -1.3125 4.9375 C-1.92738281 5.66839844 -2.54226563 6.39929688 -3.17578125 7.15234375 C-5 9 -5 9 -8 10 C-8 9.34 -8 8.68 -8 8 C-7.34 8 -6.68 8 -6 8 C-5.7525 7.4225 -5.505 6.845 -5.25 6.25 C-3.83316683 3.6997003 -2.12372463 1.98214299 0 0 Z " fill="#4FA97A" transform="translate(650,594)"/>
<path d="M0 0 C0.33 1.32 0.66 2.64 1 4 C-0.65 5.32 -2.3 6.64 -4 8 C-4.66 7.34 -5.32 6.68 -6 6 C-4.02 4.02 -2.04 2.04 0 0 Z " fill="#313234" transform="translate(204,438)"/>
<path d="M0 0 C0.33 0.66 0.66 1.32 1 2 C1.66 2 2.32 2 3 2 C2.37611108 5.61855575 1.8290723 6.1709277 -1 9 C-0.67 6.03 -0.34 3.06 0 0 Z " fill="#2F3335" transform="translate(470,467)"/>
<path d="M0 0 C0 3 0 3 0 3 Z M-5 2 C-3.68 2.66 -2.36 3.32 -1 4 C-3.3125 5.5625 -3.3125 5.5625 -6 7 C-6.99 6.67 -7.98 6.34 -9 6 C-7.68 4.68 -6.36 3.36 -5 2 Z " fill="#323335" transform="translate(258,387)"/>
<path d="M0 0 C0.99 0.33 1.98 0.66 3 1 C2.19185349 2.33597652 1.37836819 3.668725 0.5625 5 C0.11003906 5.7425 -0.34242188 6.485 -0.80859375 7.25 C-1.20175781 7.8275 -1.59492188 8.405 -2 9 C-2.33 9 -2.66 9 -3 9 C-3.26218749 5.85375007 -3.24754367 4.38162983 -1.5 1.6875 C-1.005 1.130625 -0.51 0.57375 0 0 Z " fill="#1E1E1E" transform="translate(190,452)"/>
<path d="M0 0 C-1.39332574 3.36720387 -2.9789286 4.9859524 -6 7 C-5.37162381 3.35541809 -4.14650034 0 0 0 Z " fill="#232324" transform="translate(339,305)"/>
<path d="M0 0 C0 0.66 0 1.32 0 2 C-0.66 2 -1.32 2 -2 2 C-2.268125 2.61875 -2.53625 3.2375 -2.8125 3.875 C-4 6 -4 6 -7 8 C-4.18918919 0 -4.18918919 0 0 0 Z " fill="#1F1F20" transform="translate(360,284)"/>
<path d="M0 0 C3 1 3 1 3 1 Z " fill="#4F98D8" transform="translate(648,461)"/>
<path d="M0 0 C2 1 2 1 2 1 Z " fill="#5FB385" transform="translate(466,843)"/>
<path d="M0 0 C2 1 2 1 2 1 Z " fill="#63BB8B" transform="translate(630,622)"/>
<path d="M0 0 C2 1 2 1 2 1 Z " fill="#4C91D4" transform="translate(804,425)"/>
<path d="M0 0 C2 1 2 1 2 1 Z " fill="#444547" transform="translate(319,320)"/>
<path d="" fill="#4990D8" transform="translate(0,0)"/>
<path d="M0 0 C2 1 2 1 2 1 Z " fill="#4891DA" transform="translate(585,240)"/>
<path d="M0 0 C2 1 2 1 2 1 Z " fill="#414448" transform="translate(469,192)"/>
<path d="" fill="#60B383" transform="translate(0,0)"/>
<path d="" fill="#63B485" transform="translate(0,0)"/>
<path d="" fill="#61B887" transform="translate(0,0)"/>
<path d="" fill="#61B687" transform="translate(0,0)"/>
<path d="" fill="#5DB282" transform="translate(0,0)"/>
<path d="" fill="#5CAF80" transform="translate(0,0)"/>
<path d="" fill="#60B283" transform="translate(0,0)"/>
<path d="" fill="#5BB084" transform="translate(0,0)"/>
<path d="" fill="#5EAF81" transform="translate(0,0)"/>
<path d="" fill="#5BAF81" transform="translate(0,0)"/>
<path d="" fill="#5FBE8A" transform="translate(0,0)"/>
<path d="" fill="#64BC8C" transform="translate(0,0)"/>
<path d="" fill="#61BF8A" transform="translate(0,0)"/>
<path d="" fill="#63BA8B" transform="translate(0,0)"/>
<path d="" fill="#64BC8E" transform="translate(0,0)"/>
<path d="" fill="#66BB8D" transform="translate(0,0)"/>
<path d="" fill="#62B586" transform="translate(0,0)"/>
<path d="" fill="#65BC92" transform="translate(0,0)"/>
<path d="" fill="#64BD92" transform="translate(0,0)"/>
<path d="" fill="#69B988" transform="translate(0,0)"/>
<path d="" fill="#444345" transform="translate(0,0)"/>
<path d="" fill="#414443" transform="translate(0,0)"/>
<path d="" fill="#3E4040" transform="translate(0,0)"/>
<path d="" fill="#3F4043" transform="translate(0,0)"/>
<path d="" fill="#3F3D43" transform="translate(0,0)"/>
<path d="" fill="#404345" transform="translate(0,0)"/>
<path d="" fill="#539CD7" transform="translate(0,0)"/>
<path d="" fill="#4E99D5" transform="translate(0,0)"/>
<path d="" fill="#539AD8" transform="translate(0,0)"/>
<path d="" fill="#559CD7" transform="translate(0,0)"/>
<path d="" fill="#559CD3" transform="translate(0,0)"/>
<path d="" fill="#559DD3" transform="translate(0,0)"/>
<path d="" fill="#539BD4" transform="translate(0,0)"/>
<path d="" fill="#4E96D9" transform="translate(0,0)"/>
<path d="" fill="#5698CE" transform="translate(0,0)"/>
<path d="" fill="#559BD1" transform="translate(0,0)"/>
<path d="" fill="#5096D8" transform="translate(0,0)"/>
<path d="" fill="#434041" transform="translate(0,0)"/>
<path d="" fill="#5199D6" transform="translate(0,0)"/>
<path d="" fill="#4B94D8" transform="translate(0,0)"/>
<path d="" fill="#5296D0" transform="translate(0,0)"/>
<path d="" fill="#5298D5" transform="translate(0,0)"/>
<path d="" fill="#423F42" transform="translate(0,0)"/>
<path d="" fill="#4E96D7" transform="translate(0,0)"/>
<path d="" fill="#4D95D7" transform="translate(0,0)"/>
<path d="" fill="#5195D0" transform="translate(0,0)"/>
<path d="" fill="#4C91D5" transform="translate(0,0)"/>
<path d="" fill="#4B91D4" transform="translate(0,0)"/>
<path d="" fill="#424244" transform="translate(0,0)"/>
<path d="" fill="#4D93D8" transform="translate(0,0)"/>
<path d="" fill="#404243" transform="translate(0,0)"/>
<path d="" fill="#3E4142" transform="translate(0,0)"/>
<path d="" fill="#4C8FD7" transform="translate(0,0)"/>
<path d="" fill="#404141" transform="translate(0,0)"/>
<path d="" fill="#4F93D5" transform="translate(0,0)"/>
<path d="" fill="#488FD9" transform="translate(0,0)"/>
<path d="" fill="#4D94D7" transform="translate(0,0)"/>
<path d="" fill="#4B92D6" transform="translate(0,0)"/>
<path d="" fill="#4F92D7" transform="translate(0,0)"/>
<path d="" fill="#424241" transform="translate(0,0)"/>
<path d="" fill="#404143" transform="translate(0,0)"/>
<path d="" fill="#4C90D4" transform="translate(0,0)"/>
<path d="" fill="#414342" transform="translate(0,0)"/>
<path d="" fill="#3F4543" transform="translate(0,0)"/>
<path d="" fill="#404044" transform="translate(0,0)"/>
<path d="" fill="#4890D8" transform="translate(0,0)"/>
<path d="" fill="#4A93D8" transform="translate(0,0)"/>
<path d="" fill="#4890D6" transform="translate(0,0)"/>
<path d="" fill="#3F4042" transform="translate(0,0)"/>
<path d="" fill="#4C91D8" transform="translate(0,0)"/>
<path d="" fill="#404143" transform="translate(0,0)"/>
<path d="" fill="#4993D6" transform="translate(0,0)"/>
<path d="" fill="#464E54" transform="translate(0,0)"/>
<path d="" fill="#434A4F" transform="translate(0,0)"/>
<path d="" fill="#404043" transform="translate(0,0)"/>
<path d="" fill="#434446" transform="translate(0,0)"/>
<path d="" fill="#4B8ED2" transform="translate(0,0)"/>
<path d="" fill="#414241" transform="translate(0,0)"/>
<path d="" fill="#4E92D6" transform="translate(0,0)"/>
<path d="" fill="#4990D4" transform="translate(0,0)"/>
<path d="" fill="#464C50" transform="translate(0,0)"/>
<path d="" fill="#4D92D6" transform="translate(0,0)"/>
<path d="" fill="#404042" transform="translate(0,0)"/>
<path d="" fill="#464647" transform="translate(0,0)"/>
<path d="" fill="#4E94D7" transform="translate(0,0)"/>
<path d="" fill="#4A8FD5" transform="translate(0,0)"/>
<path d="" fill="#414646" transform="translate(0,0)"/>
<path d="" fill="#424143" transform="translate(0,0)"/>
<path d="" fill="#414140" transform="translate(0,0)"/>
<path d="" fill="#3F4141" transform="translate(0,0)"/>
<path d="" fill="#488FD5" transform="translate(0,0)"/>
<path d="" fill="#4E92D6" transform="translate(0,0)"/>
<path d="" fill="#3E3F41" transform="translate(0,0)"/>
<path d="" fill="#3D4042" transform="translate(0,0)"/>
<path d="" fill="#454A52" transform="translate(0,0)"/>
<path d="" fill="#498FD5" transform="translate(0,0)"/>
<path d="" fill="#404140" transform="translate(0,0)"/>
<path d="" fill="#404042" transform="translate(0,0)"/>
<path d="" fill="#3D3F40" transform="translate(0,0)"/>
<path d="" fill="#484949" transform="translate(0,0)"/>
<path d="" fill="#4A93DA" transform="translate(0,0)"/>
<path d="" fill="#404042" transform="translate(0,0)"/>
<path d="" fill="#3E4040" transform="translate(0,0)"/>
<path d="" fill="#4A92DA" transform="translate(0,0)"/>
<path d="" fill="#3E3E42" transform="translate(0,0)"/>
<path d="" fill="#4F93D6" transform="translate(0,0)"/>
<path d="" fill="#3E4041" transform="translate(0,0)"/>
<path d="" fill="#3E3F41" transform="translate(0,0)"/>
<path d="" fill="#404241" transform="translate(0,0)"/>
<path d="" fill="#4C92D7" transform="translate(0,0)"/>
<path d="" fill="#404244" transform="translate(0,0)"/>
<path d="" fill="#3F4041" transform="translate(0,0)"/>
<path d="" fill="#4790D9" transform="translate(0,0)"/>
<path d="" fill="#4C93D8" transform="translate(0,0)"/>
<path d="" fill="#4B91D7" transform="translate(0,0)"/>
<path d="" fill="#4B90D5" transform="translate(0,0)"/>
<path d="" fill="#414044" transform="translate(0,0)"/>
<path d="" fill="#414242" transform="translate(0,0)"/>
<path d="" fill="#4D93D9" transform="translate(0,0)"/>
<path d="" fill="#488ED5" transform="translate(0,0)"/>
<path d="" fill="#4C8FD6" transform="translate(0,0)"/>
<path d="" fill="#498ECF" transform="translate(0,0)"/>
<path d="" fill="#4D8DD1" transform="translate(0,0)"/>
<path d="" fill="#4D90D5" transform="translate(0,0)"/>
<path d="" fill="#4893D7" transform="translate(0,0)"/>
<path d="" fill="#3F4045" transform="translate(0,0)"/>
<path d="" fill="#414243" transform="translate(0,0)"/>
<path d="" fill="#4C92D7" transform="translate(0,0)"/>
<path d="" fill="#414242" transform="translate(0,0)"/>
<path d="" fill="#3E4044" transform="translate(0,0)"/>
<path d="" fill="#4B91D7" transform="translate(0,0)"/>
<path d="" fill="#4793DC" transform="translate(0,0)"/>
<path d="" fill="#4B8ED4" transform="translate(0,0)"/>
<path d="" fill="#4A94DC" transform="translate(0,0)"/>
<path d="" fill="#4A8ED4" transform="translate(0,0)"/>
<path d="" fill="#448DD5" transform="translate(0,0)"/>
<path d="" fill="#488FD5" transform="translate(0,0)"/>
<path d="" fill="#478BD3" transform="translate(0,0)"/>
<path d="" fill="#4892D7" transform="translate(0,0)"/>
<path d="" fill="#4690D8" transform="translate(0,0)"/>
<path d="" fill="#4891D8" transform="translate(0,0)"/>
<path d="" fill="#4793D8" transform="translate(0,0)"/>
<path d="" fill="#488FD7" transform="translate(0,0)"/>
<path d="" fill="#4890D8" transform="translate(0,0)"/>
<path d="" fill="#4A93DA" transform="translate(0,0)"/>
</svg>
