<svg width="262" height="89" viewBox="0 0 262 89" fill="none" xmlns="http://www.w3.org/2000/svg">
<path d="M102.504 88.352H92.5204V65.456C92.5204 65.408 92.4724 65.36 92.4244 65.36H90.0724V88.352H80.0884V50H90.0724V57.68H97.5124C100.824 57.68 102.504 58.976 102.504 61.568V88.352Z" fill="#F7F7F8"/>
<path d="M72.6566 88.352H60.2246C56.9126 88.352 55.2326 87.104 55.2326 84.56V67.232H52.7846V59.648H55.2326V57.68H65.2166V59.648H77.6486V67.232H65.2166V80.624C65.2166 80.672 65.2646 80.72 65.3126 80.72H67.6166C67.6646 80.72 67.7126 80.672 67.7126 80.624V69.2H77.6486V84.56C77.6486 87.104 75.9686 88.352 72.6566 88.352Z" fill="#F7F7F8"/>
<path d="M51.2599 88.352H41.2759V57.68H51.2599V88.352Z" fill="#F7F7F8"/>
<path d="M34.896 88.352H22.56L20.064 72.992L17.52 88.352H4.992L0 57.68H10.272L12.816 74.912L15.312 57.68H25.248L27.696 74.912L30.24 57.68H39.888L34.896 88.352Z" fill="#F7F7F8"/>
<path d="M98.0134 47.904H63.2134V7.68H73.1974V40.272H98.0134V47.904ZM98.0134 38.352H80.5894C77.1334 38.352 75.5974 37.104 75.5974 34.56V11.568C75.5974 8.976 77.2774 7.68 80.5894 7.68H88.0294V0H98.0134V38.352ZM88.0294 30.72V15.36H85.6774C85.6294 15.36 85.5814 15.408 85.5814 15.456V30.624C85.5814 30.672 85.6294 30.72 85.6774 30.72H88.0294Z" fill="#F7F7F8"/>
<path d="M60.7286 38.352H50.7446V7.68H60.7286V38.352Z" fill="#F7F7F8"/>
<path d="M43.3238 38.352H30.8918C27.5798 38.352 25.8998 37.104 25.8998 34.56V7.68H35.8838V30.624C35.8838 30.672 35.9318 30.72 35.9798 30.72H38.2357C38.2837 30.72 38.3317 30.672 38.3317 30.624V7.68H48.3158V34.56C48.3158 37.104 46.6358 38.352 43.3238 38.352Z" fill="#F7F7F8"/>
<path d="M13.536 19.872V15.456C13.536 15.408 13.488 15.36 13.44 15.36H11.088V19.968H13.44C13.488 19.968 13.536 19.92 13.536 19.872ZM18.528 38.352H1.104V7.68H18.528C21.84 7.68 23.472 8.976 23.472 11.568V20.496C23.472 21.984 22.656 22.8 21.024 22.992C22.704 23.232 23.52 24.048 23.52 25.536V34.56C23.52 37.104 21.84 38.352 18.528 38.352ZM13.536 30.624V26.16C13.536 26.112 13.488 26.064 13.44 26.064H11.088V30.72H13.44C13.488 30.72 13.536 30.672 13.536 30.624Z" fill="#F7F7F8"/>
<path d="M262.002 88.352H199.702C192.802 88.352 189.302 85.752 189.302 80.452V43.852H184.202V68.452H163.402V4.552H184.202V29.152H189.302V4.552H210.102V72.252C210.102 72.352 210.202 72.452 210.302 72.452H262.002V88.352ZM262.002 68.452H241.202V43.052C241.202 42.952 241.102 42.852 241.002 42.852H236.102V68.452H215.302V4.552H251.602C258.502 4.552 261.902 7.252 261.902 12.652V31.252C261.902 34.352 260.202 36.052 256.802 36.452C260.302 36.952 262.002 38.652 262.002 41.752V68.452ZM241.202 29.952V20.752C241.202 20.652 241.102 20.552 241.002 20.552H236.102V30.152H241.002C241.102 30.152 241.202 30.052 241.202 29.952Z" fill="#F7F7F8"/>
<path d="M146.404 68.452H125.604V45.652C116.904 45.652 112.504 41.352 112.504 32.652V4.552H133.304V30.452C133.304 30.552 133.404 30.652 133.504 30.652H138.204C138.304 30.652 138.404 30.552 138.404 30.452V4.552H159.204V32.652C159.204 41.352 154.904 45.652 146.404 45.652V68.452Z" fill="#F7F7F8"/>
</svg>
